<?xml version="1.0" encoding="UTF-8"?>
<svg id="Layer_1" data-name="Layer 1" xmlns="http://www.w3.org/2000/svg" viewBox="0 0 1318.05 838.23" fill="white">
  <style>
    path, polygon { fill: white; }
  </style>
  <path d="M232.04,7.76v29.82c18.65,5.28,31.84,10.04,39.54,14.29,7.71,4.27,13.89,9.96,18.56,17.05,4.66,7.09,8,17.03,10.04,29.81,2.03,12.78,3.04,33.16,3.04,61.14v285.59l113.77-44.98v-240.61c0-27.98,1.11-48.67,3.34-62.06,2.24-13.37,5.69-23.42,10.35-30.11,4.65-6.69,10.95-12.26,18.86-16.73,7.9-4.46,20.79-8.92,38.64-13.39V7.76H232.04ZM303.22,477.72v109.3l113.77-59.01v-95.27l-113.77,44.98ZM447.72,793.83c-8.31-4.88-14.61-10.96-18.86-18.25-4.26-7.3-7.31-17.24-9.14-29.82-1.83-12.57-2.73-32.45-2.73-59.62v-124.33l-109.34,56.7-4.43-.82v68.45c0,30.01-1.33,52.33-3.95,66.92-2.64,14.59-8.22,25.86-16.73,33.77-8.52,7.9-25.35,15.11-50.5,21.59v29.81h256.14v-29.81c-18.66-4.86-32.14-9.72-40.46-14.59ZM887.29,784.7c-4.07-4.47-7.5-10.25-10.35-17.34-2.84-7.1-4.86-16.53-6.08-28.3-1.22-11.75-1.82-29.39-1.82-52.92v-358.77l-113.77,59v299.77c0,33.66-1.73,57.59-5.17,71.78-3.46,14.2-9.64,24.75-18.56,31.64-8.93,6.91-24.54,13.19-46.85,18.86v29.81h254.92v-29.81c-15.82-4.05-27.48-7.89-34.98-11.55-7.5-3.65-13.28-7.7-17.34-12.17ZM684.69,7.76v29.82c23.92,6.5,39.94,13.18,48.06,20.07,8.11,6.91,13.89,16.85,17.35,29.82,3.44,12.98,5.17,37.12,5.17,72.4v192.71l113.77-59v-133.71c0-33.25,1.6-56.98,4.85-71.18,3.25-14.19,9.33-24.85,18.25-31.94,8.93-7.1,24.75-13.49,47.47-19.17V7.76h-254.92Z"/>
  <polygon points="1190 127.13 869.04 293.58 755.27 352.58 416.99 528.01 250 617.13 144 672.13 0 587.13 303.22 477.72 416.99 432.74 755.27 299 869.04 254.02 1190 127.13"/>
  <polygon points="1313.84 165.53 1242.12 139.49 1195.19 199.66 1197.79 123.39 1126.07 97.36 1199.4 76.26 1202 0 1244.72 63.23 1318.05 42.13 1271.12 102.3 1313.84 165.53"/>
</svg>